<mxfile host="app.diagrams.net" modified="2021-09-14T02:53:04.898Z" agent="5.0 (Macintosh; Intel Mac OS X 10_15_7) AppleWebKit/537.36 (KHTML, like Gecko) Chrome/92.0.4515.159 Safari/537.36" etag="Cet7m4dMBMKtDVnhX16V" version="14.8.4" type="github">
  <diagram id="a0-VXBY5YChOVK4LlPnO" name="第 1 页">
    <mxGraphModel dx="1459" dy="954" grid="1" gridSize="10" guides="1" tooltips="1" connect="1" arrows="1" fold="1" page="1" pageScale="1" pageWidth="827" pageHeight="1169" math="0" shadow="0">
      <root>
        <mxCell id="0" />
        <mxCell id="1" parent="0" />
        <mxCell id="eOtkvtTxVETns7pGdinw-6" value="" style="rounded=0;whiteSpace=wrap;html=1;fillColor=#fff2cc;strokeColor=#d6b656;" vertex="1" parent="1">
          <mxGeometry x="160" y="60" width="840" height="280" as="geometry" />
        </mxCell>
        <mxCell id="eOtkvtTxVETns7pGdinw-19" style="edgeStyle=orthogonalEdgeStyle;rounded=0;orthogonalLoop=1;jettySize=auto;html=1;exitX=1;exitY=0.5;exitDx=0;exitDy=0;entryX=0;entryY=0.5;entryDx=0;entryDy=0;" edge="1" parent="1" source="eOtkvtTxVETns7pGdinw-9" target="eOtkvtTxVETns7pGdinw-15">
          <mxGeometry relative="1" as="geometry" />
        </mxCell>
        <mxCell id="eOtkvtTxVETns7pGdinw-9" value="" style="rounded=0;whiteSpace=wrap;html=1;fillColor=none;" vertex="1" parent="1">
          <mxGeometry x="330" y="145" width="140" height="130" as="geometry" />
        </mxCell>
        <mxCell id="eOtkvtTxVETns7pGdinw-1" value="主播" style="shape=umlActor;verticalLabelPosition=bottom;verticalAlign=top;html=1;" vertex="1" parent="1">
          <mxGeometry x="50" y="180" width="30" height="60" as="geometry" />
        </mxCell>
        <mxCell id="eOtkvtTxVETns7pGdinw-7" value="创建预告" style="rounded=1;whiteSpace=wrap;html=1;" vertex="1" parent="1">
          <mxGeometry x="340" y="160" width="120" height="40" as="geometry" />
        </mxCell>
        <mxCell id="eOtkvtTxVETns7pGdinw-8" value="发布直播" style="rounded=1;whiteSpace=wrap;html=1;" vertex="1" parent="1">
          <mxGeometry x="340" y="220" width="120" height="40" as="geometry" />
        </mxCell>
        <mxCell id="eOtkvtTxVETns7pGdinw-11" value="" style="endArrow=classic;html=1;entryX=0;entryY=0.5;entryDx=0;entryDy=0;" edge="1" parent="1" target="eOtkvtTxVETns7pGdinw-16">
          <mxGeometry width="50" height="50" relative="1" as="geometry">
            <mxPoint x="80" y="210" as="sourcePoint" />
            <mxPoint x="210" y="210" as="targetPoint" />
          </mxGeometry>
        </mxCell>
        <mxCell id="eOtkvtTxVETns7pGdinw-13" value="创建直播" style="text;html=1;align=center;verticalAlign=middle;resizable=0;points=[];autosize=1;strokeColor=none;" vertex="1" parent="1">
          <mxGeometry x="370" y="120" width="60" height="20" as="geometry" />
        </mxCell>
        <mxCell id="eOtkvtTxVETns7pGdinw-25" style="edgeStyle=orthogonalEdgeStyle;rounded=0;orthogonalLoop=1;jettySize=auto;html=1;exitX=1;exitY=0.5;exitDx=0;exitDy=0;entryX=0;entryY=0.5;entryDx=0;entryDy=0;" edge="1" parent="1" source="eOtkvtTxVETns7pGdinw-15" target="eOtkvtTxVETns7pGdinw-20">
          <mxGeometry relative="1" as="geometry" />
        </mxCell>
        <mxCell id="eOtkvtTxVETns7pGdinw-15" value="选择直播场次" style="rounded=1;whiteSpace=wrap;html=1;" vertex="1" parent="1">
          <mxGeometry x="510" y="190" width="120" height="40" as="geometry" />
        </mxCell>
        <mxCell id="eOtkvtTxVETns7pGdinw-18" style="edgeStyle=orthogonalEdgeStyle;rounded=0;orthogonalLoop=1;jettySize=auto;html=1;exitX=1;exitY=0.5;exitDx=0;exitDy=0;entryX=0;entryY=0.5;entryDx=0;entryDy=0;" edge="1" parent="1" source="eOtkvtTxVETns7pGdinw-16" target="eOtkvtTxVETns7pGdinw-9">
          <mxGeometry relative="1" as="geometry" />
        </mxCell>
        <mxCell id="eOtkvtTxVETns7pGdinw-16" value="登录&lt;br&gt;（cookie未过期）" style="rounded=1;whiteSpace=wrap;html=1;" vertex="1" parent="1">
          <mxGeometry x="186" y="190" width="100" height="40" as="geometry" />
        </mxCell>
        <mxCell id="eOtkvtTxVETns7pGdinw-26" value="" style="edgeStyle=orthogonalEdgeStyle;rounded=0;orthogonalLoop=1;jettySize=auto;html=1;" edge="1" parent="1" source="eOtkvtTxVETns7pGdinw-20" target="eOtkvtTxVETns7pGdinw-24">
          <mxGeometry relative="1" as="geometry" />
        </mxCell>
        <mxCell id="eOtkvtTxVETns7pGdinw-20" value="" style="rounded=0;whiteSpace=wrap;html=1;fillColor=none;" vertex="1" parent="1">
          <mxGeometry x="670" y="100" width="190" height="220" as="geometry" />
        </mxCell>
        <mxCell id="eOtkvtTxVETns7pGdinw-21" value="添加摄像头" style="rounded=1;whiteSpace=wrap;html=1;" vertex="1" parent="1">
          <mxGeometry x="690" y="113" width="150" height="40" as="geometry" />
        </mxCell>
        <mxCell id="eOtkvtTxVETns7pGdinw-22" value="添加图片/文字/绿幕/美颜" style="rounded=1;whiteSpace=wrap;html=1;" vertex="1" parent="1">
          <mxGeometry x="690.5" y="163" width="149.5" height="40" as="geometry" />
        </mxCell>
        <mxCell id="eOtkvtTxVETns7pGdinw-23" value="设置其他直播插件" style="rounded=1;whiteSpace=wrap;html=1;" vertex="1" parent="1">
          <mxGeometry x="690" y="213" width="150" height="40" as="geometry" />
        </mxCell>
        <mxCell id="eOtkvtTxVETns7pGdinw-29" style="edgeStyle=orthogonalEdgeStyle;rounded=0;orthogonalLoop=1;jettySize=auto;html=1;exitX=1;exitY=0.5;exitDx=0;exitDy=0;" edge="1" parent="1" source="eOtkvtTxVETns7pGdinw-24">
          <mxGeometry relative="1" as="geometry">
            <mxPoint x="1090" y="190" as="targetPoint" />
            <Array as="points">
              <mxPoint x="1030" y="210" />
              <mxPoint x="1030" y="190" />
            </Array>
          </mxGeometry>
        </mxCell>
        <mxCell id="eOtkvtTxVETns7pGdinw-31" value="rtmp" style="edgeLabel;html=1;align=center;verticalAlign=middle;resizable=0;points=[];" vertex="1" connectable="0" parent="eOtkvtTxVETns7pGdinw-29">
          <mxGeometry x="0.4032" y="1" relative="1" as="geometry">
            <mxPoint x="9" y="-1" as="offset" />
          </mxGeometry>
        </mxCell>
        <mxCell id="eOtkvtTxVETns7pGdinw-30" style="edgeStyle=orthogonalEdgeStyle;rounded=0;orthogonalLoop=1;jettySize=auto;html=1;exitX=1;exitY=0.5;exitDx=0;exitDy=0;entryX=0.13;entryY=0.77;entryDx=0;entryDy=0;entryPerimeter=0;" edge="1" parent="1" source="eOtkvtTxVETns7pGdinw-24" target="eOtkvtTxVETns7pGdinw-28">
          <mxGeometry relative="1" as="geometry" />
        </mxCell>
        <mxCell id="eOtkvtTxVETns7pGdinw-32" value="artc" style="edgeLabel;html=1;align=center;verticalAlign=middle;resizable=0;points=[];" vertex="1" connectable="0" parent="eOtkvtTxVETns7pGdinw-30">
          <mxGeometry x="0.254" relative="1" as="geometry">
            <mxPoint x="13" y="-4" as="offset" />
          </mxGeometry>
        </mxCell>
        <mxCell id="eOtkvtTxVETns7pGdinw-24" value="推流" style="rounded=1;whiteSpace=wrap;html=1;" vertex="1" parent="1">
          <mxGeometry x="900" y="190" width="80" height="40" as="geometry" />
        </mxCell>
        <mxCell id="eOtkvtTxVETns7pGdinw-35" style="edgeStyle=orthogonalEdgeStyle;rounded=0;orthogonalLoop=1;jettySize=auto;html=1;exitX=0.875;exitY=0.5;exitDx=0;exitDy=0;exitPerimeter=0;entryX=0;entryY=0.4;entryDx=0;entryDy=0;entryPerimeter=0;" edge="1" parent="1" source="eOtkvtTxVETns7pGdinw-28" target="eOtkvtTxVETns7pGdinw-34">
          <mxGeometry relative="1" as="geometry">
            <mxPoint x="1260" y="206" as="targetPoint" />
          </mxGeometry>
        </mxCell>
        <mxCell id="eOtkvtTxVETns7pGdinw-28" value="流媒体服务器" style="shape=cloud;whiteSpace=wrap;html=1;fillColor=#dae8fc;strokeColor=#6c8ebf;" vertex="1" parent="1">
          <mxGeometry x="1080" y="155" width="130" height="100" as="geometry" />
        </mxCell>
        <mxCell id="eOtkvtTxVETns7pGdinw-34" value="直播间" style="rounded=0;whiteSpace=wrap;html=1;fillColor=#d5e8d4;strokeColor=#82b366;" vertex="1" parent="1">
          <mxGeometry x="1260" y="189" width="100" height="40" as="geometry" />
        </mxCell>
        <mxCell id="eOtkvtTxVETns7pGdinw-47" style="edgeStyle=orthogonalEdgeStyle;rounded=0;orthogonalLoop=1;jettySize=auto;html=1;" edge="1" parent="1">
          <mxGeometry relative="1" as="geometry">
            <mxPoint x="1360" y="210" as="targetPoint" />
            <mxPoint x="1480" y="258" as="sourcePoint" />
            <Array as="points">
              <mxPoint x="1410" y="258" />
              <mxPoint x="1410" y="210" />
            </Array>
          </mxGeometry>
        </mxCell>
        <mxCell id="eOtkvtTxVETns7pGdinw-36" value="" style="shape=umlActor;verticalLabelPosition=bottom;verticalAlign=top;html=1;" vertex="1" parent="1">
          <mxGeometry x="1481" y="228" width="30" height="60" as="geometry" />
        </mxCell>
        <mxCell id="eOtkvtTxVETns7pGdinw-46" style="edgeStyle=orthogonalEdgeStyle;rounded=0;orthogonalLoop=1;jettySize=auto;html=1;entryX=1;entryY=0.5;entryDx=0;entryDy=0;" edge="1" parent="1" target="eOtkvtTxVETns7pGdinw-34">
          <mxGeometry relative="1" as="geometry">
            <mxPoint x="1480" y="158" as="sourcePoint" />
            <Array as="points">
              <mxPoint x="1410" y="158" />
              <mxPoint x="1410" y="210" />
            </Array>
          </mxGeometry>
        </mxCell>
        <mxCell id="eOtkvtTxVETns7pGdinw-37" value="" style="shape=umlActor;verticalLabelPosition=bottom;verticalAlign=top;html=1;" vertex="1" parent="1">
          <mxGeometry x="1481" y="128" width="30" height="60" as="geometry" />
        </mxCell>
        <mxCell id="eOtkvtTxVETns7pGdinw-38" value="观众" style="text;html=1;strokeColor=none;fillColor=none;align=center;verticalAlign=middle;whiteSpace=wrap;rounded=0;" vertex="1" parent="1">
          <mxGeometry x="1476" y="293" width="40" height="20" as="geometry" />
        </mxCell>
        <mxCell id="eOtkvtTxVETns7pGdinw-40" value="直播控制台" style="text;html=1;align=center;verticalAlign=middle;resizable=0;points=[];autosize=1;strokeColor=none;" vertex="1" parent="1">
          <mxGeometry x="725" y="76" width="80" height="20" as="geometry" />
        </mxCell>
        <mxCell id="eOtkvtTxVETns7pGdinw-42" value="Electron PC直播伴侣" style="text;html=1;align=center;verticalAlign=middle;resizable=0;points=[];autosize=1;strokeColor=none;" vertex="1" parent="1">
          <mxGeometry x="171" y="72" width="130" height="20" as="geometry" />
        </mxCell>
        <mxCell id="eOtkvtTxVETns7pGdinw-43" value="观看" style="text;html=1;align=center;verticalAlign=middle;resizable=0;points=[];autosize=1;strokeColor=none;" vertex="1" parent="1">
          <mxGeometry x="1423" y="140" width="40" height="20" as="geometry" />
        </mxCell>
        <mxCell id="eOtkvtTxVETns7pGdinw-45" value="观众" style="text;html=1;strokeColor=none;fillColor=none;align=center;verticalAlign=middle;whiteSpace=wrap;rounded=0;" vertex="1" parent="1">
          <mxGeometry x="1476" y="188" width="40" height="20" as="geometry" />
        </mxCell>
        <mxCell id="eOtkvtTxVETns7pGdinw-49" value="观看" style="text;html=1;align=center;verticalAlign=middle;resizable=0;points=[];autosize=1;strokeColor=none;" vertex="1" parent="1">
          <mxGeometry x="1423" y="235" width="40" height="20" as="geometry" />
        </mxCell>
        <mxCell id="eOtkvtTxVETns7pGdinw-50" value="直播互动工具" style="rounded=1;whiteSpace=wrap;html=1;" vertex="1" parent="1">
          <mxGeometry x="690" y="262" width="150" height="40" as="geometry" />
        </mxCell>
      </root>
    </mxGraphModel>
  </diagram>
</mxfile>
